<svg xmlns="http://www.w3.org/2000/svg" viewBox="0 0 960 620" role="img" aria-labelledby="title desc">
  <title id="title">Criancas e comunidade</title>
  <desc id="desc">Ilustracao acolhedora de criancas, familiares e voluntarios em ambiente comunitario.</desc>
  <defs>
    <linearGradient id="sky" x1="0" x2="1" y1="0" y2="1">
      <stop offset="0" stop-color="#f7fcff"/>
      <stop offset="1" stop-color="#eaf7ff"/>
    </linearGradient>
    <linearGradient id="blue" x1="0" x2="1">
      <stop offset="0" stop-color="#06449c"/>
      <stop offset="1" stop-color="#1d94e8"/>
    </linearGradient>
    <filter id="shadow" x="-20%" y="-20%" width="140%" height="140%">
      <feDropShadow dx="0" dy="18" stdDeviation="18" flood-color="#06449c" flood-opacity=".15"/>
    </filter>
  </defs>
  <rect width="960" height="620" rx="32" fill="url(#sky)"/>
  <rect x="94" y="384" width="772" height="112" rx="56" fill="#dff2ff"/>
  <g filter="url(#shadow)">
    <rect x="156" y="118" width="648" height="333" rx="24" fill="#fff"/>
    <rect x="196" y="158" width="568" height="82" rx="18" fill="#eaf7ff"/>
    <path d="M246 240v-72h96v72M618 240v-72h96v72" fill="#fff" stroke="#0968ce" stroke-width="10"/>
    <rect x="421" y="292" width="118" height="159" rx="22" fill="url(#blue)"/>
    <circle cx="480" cy="257" r="34" fill="#ffc88c"/>
  </g>
  <g>
    <circle cx="262" cy="336" r="34" fill="#f2ad75"/>
    <path d="M217 431c8-55 27-81 49-81s42 26 50 81" fill="#ee2c24"/>
    <rect x="210" y="421" width="112" height="91" rx="26" fill="#ee2c24"/>
    <path d="M219 463c-34 17-58 38-74 66" stroke="#f2ad75" stroke-width="21" stroke-linecap="round"/>
    <path d="M314 462c31 14 56 35 75 64" stroke="#f2ad75" stroke-width="21" stroke-linecap="round"/>
  </g>
  <g>
    <circle cx="700" cy="336" r="34" fill="#ffc88c"/>
    <path d="M657 431c8-55 27-81 49-81s42 26 50 81" fill="#0968ce"/>
    <rect x="650" y="421" width="112" height="91" rx="26" fill="#0968ce"/>
    <path d="M657 462c-31 14-55 35-74 64" stroke="#ffc88c" stroke-width="21" stroke-linecap="round"/>
    <path d="M757 463c34 17 58 38 74 66" stroke="#ffc88c" stroke-width="21" stroke-linecap="round"/>
  </g>
  <g>
    <circle cx="480" cy="367" r="42" fill="#ffcc94"/>
    <path d="M424 478c10-70 34-104 62-104s53 34 63 104" fill="#14a56b"/>
    <rect x="414" y="467" width="142" height="96" rx="31" fill="#14a56b"/>
    <path d="M409 508c-41 12-74 32-98 61" stroke="#ffcc94" stroke-width="24" stroke-linecap="round"/>
    <path d="M560 508c42 12 75 32 99 61" stroke="#ffcc94" stroke-width="24" stroke-linecap="round"/>
  </g>
  <path d="M797 103c-18-30-59-18-59 17 0 32 59 66 59 66s59-34 59-66c0-35-41-47-59-17z" fill="#ee2c24"/>
  <path d="M139 92c36 0 65 29 65 65s-29 65-65 65-65-29-65-65 29-65 65-65z" fill="#ffe9e7"/>
  <path d="M108 157h62M139 126v62" stroke="#ee2c24" stroke-width="13" stroke-linecap="round"/>
</svg>
