<svg xmlns="http://www.w3.org/2000/svg" viewBox="0 0 960 620" role="img" aria-labelledby="title desc">
  <title id="title">Doacao via Pix</title>
  <desc id="desc">Ilustracao de celular com chave Pix, coracao e maos de apoio.</desc>
  <defs>
    <linearGradient id="bg" x1="0" x2="1" y1="0" y2="1">
      <stop offset="0" stop-color="#06449c"/>
      <stop offset="1" stop-color="#1d94e8"/>
    </linearGradient>
    <filter id="shadow" x="-20%" y="-20%" width="140%" height="140%">
      <feDropShadow dx="0" dy="20" stdDeviation="22" flood-color="#062c63" flood-opacity=".28"/>
    </filter>
  </defs>
  <rect width="960" height="620" rx="34" fill="url(#bg)"/>
  <circle cx="805" cy="120" r="94" fill="#fff" opacity=".14"/>
  <circle cx="152" cy="520" r="128" fill="#fff" opacity=".12"/>
  <g filter="url(#shadow)">
    <rect x="318" y="72" width="324" height="488" rx="46" fill="#ffffff"/>
    <rect x="346" y="124" width="268" height="372" rx="24" fill="#f7fcff"/>
    <rect x="390" y="160" width="180" height="30" rx="15" fill="#d8e8f5"/>
    <path d="M480 252c-34-57-115-33-115 34 0 63 115 130 115 130s115-67 115-130c0-67-81-91-115-34z" fill="#ee2c24"/>
    <rect x="388" y="435" width="184" height="34" rx="17" fill="#0968ce"/>
  </g>
  <path d="M226 419c57 24 105 35 151 35" stroke="#ffc88c" stroke-width="42" stroke-linecap="round"/>
  <path d="M738 419c-57 24-105 35-151 35" stroke="#ffc88c" stroke-width="42" stroke-linecap="round"/>
  <path d="M203 455c-70-10-118-43-142-99" stroke="#ffc88c" stroke-width="36" stroke-linecap="round"/>
  <path d="M757 455c70-10 118-43 142-99" stroke="#ffc88c" stroke-width="36" stroke-linecap="round"/>
  <g fill="#fff" opacity=".9">
    <circle cx="162" cy="164" r="10"/>
    <circle cx="244" cy="118" r="7"/>
    <circle cx="740" cy="462" r="8"/>
  </g>
</svg>
