<svg xmlns="http://www.w3.org/2000/svg" viewBox="0 0 960 720" role="img" aria-labelledby="title desc">
  <title id="title">Voluntariado e acolhimento</title>
  <desc id="desc">Ilustracao de pessoas em uma acao solidaria com caixas de doacao, coracao e elementos azuis da marca ACOS.</desc>
  <defs>
    <linearGradient id="bg" x1="0" x2="1" y1="0" y2="1">
      <stop offset="0" stop-color="#eaf7ff"/>
      <stop offset="1" stop-color="#ffffff"/>
    </linearGradient>
    <linearGradient id="blue" x1="0" x2="1">
      <stop offset="0" stop-color="#06449c"/>
      <stop offset="1" stop-color="#1d94e8"/>
    </linearGradient>
    <linearGradient id="red" x1="0" x2="1">
      <stop offset="0" stop-color="#ee2c24"/>
      <stop offset="1" stop-color="#ff746c"/>
    </linearGradient>
    <filter id="shadow" x="-20%" y="-20%" width="140%" height="140%">
      <feDropShadow dx="0" dy="22" stdDeviation="22" flood-color="#06449c" flood-opacity=".16"/>
    </filter>
  </defs>
  <rect width="960" height="720" rx="42" fill="url(#bg)"/>
  <circle cx="790" cy="116" r="78" fill="#dff2ff"/>
  <circle cx="160" cy="602" r="108" fill="#ffe9e7"/>
  <path d="M78 502c117-88 216-69 318-9 136 79 251 89 437-38v181H78z" fill="#d7efff"/>
  <g filter="url(#shadow)">
    <rect x="236" y="361" width="488" height="185" rx="18" fill="#fff"/>
    <rect x="274" y="398" width="168" height="112" rx="12" fill="#f8c47b"/>
    <path d="M274 430h168M358 398v112" stroke="#cf7d2f" stroke-width="8"/>
    <rect x="476" y="398" width="210" height="112" rx="12" fill="#f8c47b"/>
    <path d="M476 430h210M581 398v112" stroke="#cf7d2f" stroke-width="8"/>
  </g>
  <g>
    <circle cx="287" cy="282" r="54" fill="#ffc88c"/>
    <path d="M230 365c10-58 35-86 63-86s54 29 64 86" fill="url(#blue)"/>
    <path d="M246 220c29-40 83-25 94 19-18-15-42-12-70-2-15 5-25 2-24-17z" fill="#143a69"/>
    <rect x="224" y="361" width="139" height="158" rx="28" fill="#0968ce"/>
    <path d="M219 391c-45 37-68 78-72 123" stroke="#ffc88c" stroke-width="28" stroke-linecap="round"/>
    <path d="M364 389c38 24 69 57 94 98" stroke="#ffc88c" stroke-width="28" stroke-linecap="round"/>
  </g>
  <g>
    <circle cx="655" cy="262" r="50" fill="#f6b77c"/>
    <path d="M603 339c9-52 32-78 59-78s52 27 61 78" fill="#ee2c24"/>
    <path d="M618 207c31-31 80-14 88 26-34-18-62-7-88-26z" fill="#5c2f20"/>
    <rect x="590" y="337" width="145" height="166" rx="28" fill="#ee2c24"/>
    <path d="M594 384c-37 22-68 52-94 93" stroke="#f6b77c" stroke-width="27" stroke-linecap="round"/>
    <path d="M739 384c41 23 70 58 86 101" stroke="#f6b77c" stroke-width="27" stroke-linecap="round"/>
  </g>
  <path d="M506 244c-29-49-98-29-98 29 0 54 98 111 98 111s98-57 98-111c0-58-69-78-98-29z" fill="url(#red)"/>
  <path d="M505 145c-15 0-31 16-31 34 0 30 54 61 54 61s54-31 54-61c0-18-16-34-31-34-12 0-21 7-23 17-2-10-11-17-23-17z" fill="#fff" opacity=".92"/>
  <g fill="#06449c" opacity=".95">
    <circle cx="144" cy="176" r="10"/>
    <circle cx="821" cy="307" r="8"/>
    <circle cx="190" cy="126" r="6"/>
  </g>
</svg>
